<svg xmlns="http://www.w3.org/2000/svg" xmlns:xlink="http://www.w3.org/1999/xlink" width="1920" height="1080" viewBox="0 0 1920 1080">
  <defs>
    <clipPath id="clip-Web_1920_1">
      <rect width="1920" height="1080"/>
    </clipPath>
  </defs>
  <g id="Web_1920_1" data-name="Web 1920 – 1" clip-path="url(#clip-Web_1920_1)">
    <rect width="1920" height="1080" fill="#fff"/>
    <rect id="Rectangle_1" data-name="Rectangle 1" width="1280" height="142" fill="#f51c4b"/>
    <rect id="Rectangle_2" data-name="Rectangle 2" width="1280" height="809" transform="translate(0 136)" fill="#ff2c5a"/>
    <rect id="Rectangle_3" data-name="Rectangle 3" width="153" height="153" rx="20" transform="translate(1127 387)" fill="#fff"/>
    <rect id="Rectangle_8" data-name="Rectangle 8" width="153" height="153" rx="20" transform="translate(1127 693)" fill="#fff"/>
    <rect id="Rectangle_6" data-name="Rectangle 6" width="153" height="153" rx="20" transform="translate(974 540)" fill="#fff" opacity="0.3"/>
    <rect id="Rectangle_4" data-name="Rectangle 4" width="153" height="153" rx="20" transform="translate(1280 234)" fill="#f51c4b"/>
    <rect id="Rectangle_7" data-name="Rectangle 7" width="153" height="153" rx="20" transform="translate(1280 540)" fill="#f51c4b"/>
    <rect id="Rectangle_5" data-name="Rectangle 5" width="153" height="153" rx="20" transform="translate(1433 387)" fill="#f51c4b" opacity="0.3"/>
    <circle id="Ellipse_1" data-name="Ellipse 1" cx="76.5" cy="76.5" r="76.5" transform="translate(1280 387)" fill="#c70039"/>
    <circle id="Ellipse_2" data-name="Ellipse 2" cx="76.5" cy="76.5" r="76.5" transform="translate(1127 540)" fill="#581845"/>
  </g>
</svg>

<svg xmlns="http://www.w3.org/2000/svg" width="612" height="612" viewBox="0 0 612 612">
  <rect id="Rectangle_3" data-name="Rectangle 3" width="153" height="153" rx="20" transform="translate(153 153)" fill="#fff"/>
  <rect id="Rectangle_8" data-name="Rectangle 8" width="153" height="153" rx="20" transform="translate(153 459)" fill="#fff"/>
  <rect id="Rectangle_6" data-name="Rectangle 6" width="153" height="153" rx="20" transform="translate(0 306)" fill="#fff" opacity="0.3"/>
  <rect id="Rectangle_4" data-name="Rectangle 4" width="153" height="153" rx="20" transform="translate(306)" fill="#f51c4b"/>
  <rect id="Rectangle_7" data-name="Rectangle 7" width="153" height="153" rx="20" transform="translate(306 306)" fill="#f51c4b"/>
  <rect id="Rectangle_5" data-name="Rectangle 5" width="153" height="153" rx="20" transform="translate(459 153)" fill="#f51c4b" opacity="0.3"/>
  <circle id="Ellipse_1" data-name="Ellipse 1" cx="76.5" cy="76.5" r="76.5" transform="translate(306 153)" fill="#c70039"/>
  <circle id="Ellipse_2" data-name="Ellipse 2" cx="76.5" cy="76.5" r="76.5" transform="translate(153 306)" fill="#581845"/>
</svg>
